<?xml version="1.0" encoding="UTF-8" standalone="no"?>
<!-- Created with Inkscape (http://www.inkscape.org/) -->

<svg
   width="210mm"
   height="297mm"
   viewBox="0 0 210 297"
   version="1.1"
   id="svg1"
   xml:space="preserve"
   inkscape:version="1.3 (0e150ed6c4, 2023-07-21)"
   sodipodi:docname="HarmoniesWorlds_1.svg"
   xmlns:inkscape="http://www.inkscape.org/namespaces/inkscape"
   xmlns:sodipodi="http://sodipodi.sourceforge.net/DTD/sodipodi-0.dtd"
   xmlns="http://www.w3.org/2000/svg"
   xmlns:svg="http://www.w3.org/2000/svg"><sodipodi:namedview
     id="namedview1"
     pagecolor="#ffffff"
     bordercolor="#666666"
     borderopacity="1.0"
     inkscape:showpageshadow="2"
     inkscape:pageopacity="0.0"
     inkscape:pagecheckerboard="0"
     inkscape:deskcolor="#d1d1d1"
     inkscape:document-units="mm"
     inkscape:zoom="0.35355339"
     inkscape:cx="106.06602"
     inkscape:cy="442.64884"
     inkscape:window-width="1280"
     inkscape:window-height="977"
     inkscape:window-x="0"
     inkscape:window-y="0"
     inkscape:window-maximized="1"
     inkscape:current-layer="layer1" /><defs
     id="defs1"><inkscape:path-effect
       effect="bspline"
       id="path-effect4"
       is_visible="true"
       lpeversion="1.3"
       weight="33.333333"
       steps="2"
       helper_size="0"
       apply_no_weight="true"
       apply_with_weight="true"
       only_selected="false"
       uniform="false" /><inkscape:path-effect
       effect="bspline"
       id="path-effect3"
       is_visible="true"
       lpeversion="1.3"
       weight="33.333333"
       steps="2"
       helper_size="0"
       apply_no_weight="true"
       apply_with_weight="true"
       only_selected="false"
       uniform="false" /><inkscape:path-effect
       effect="bspline"
       id="path-effect2"
       is_visible="true"
       lpeversion="1.3"
       weight="33.333333"
       steps="2"
       helper_size="0"
       apply_no_weight="true"
       apply_with_weight="true"
       only_selected="false"
       uniform="false" /><inkscape:path-effect
       effect="bspline"
       id="path-effect2-7"
       is_visible="true"
       lpeversion="1.3"
       weight="33.333333"
       steps="2"
       helper_size="0"
       apply_no_weight="true"
       apply_with_weight="true"
       only_selected="false"
       uniform="false" /></defs><g
     inkscape:label="Слой 1"
     inkscape:groupmode="layer"
     id="layer1"><path
       id="path42"
       style="fill:#000000;fill-opacity:1;stroke:#000000;stroke-width:0.159198;stroke-linejoin:round;stroke-miterlimit:0;stroke-opacity:1"
       d="M 129.59106 8.6955933 C 129.50824 8.6739067 128.68083 8.9508399 128.36219 9.1115885 C 126.92914 9.5525875 125.95448 10.859379 125.63988 12.288139 C 125.1046 13.389877 124.09998 14.696115 122.80026 14.819767 C 121.25508 14.916682 119.76086 15.323788 118.25015 15.602148 C 118.63552 15.065111 120.15803 13.746326 120.49859 12.571842 C 121.0201 11.121793 122.45613 10.435488 123.54698 9.4841756 C 122.96729 9.6989833 121.75138 10.59963 121.12697 11.290267 C 120.20457 12.256166 119.97538 13.706128 118.83874 14.508158 C 118.16921 15.729232 116.74097 15.552923 115.89939 16.425354 C 114.71229 17.710895 113.50918 18.981035 112.33836 20.281449 C 111.68794 21.201602 113.25488 21.230489 113.31918 20.277832 C 114.1293 19.186785 114.62017 17.630522 115.9924 17.124536 C 117.24956 15.983749 118.0527 17.614943 119.18497 18.117757 C 121.16629 18.978118 123.376 19.157228 125.5081 19.360059 C 125.34366 19.259445 123.38186 19.088332 122.56513 18.88877 C 120.73454 18.578622 118.77612 18.104043 117.53029 16.610356 C 118.19389 16.003255 119.8257 15.773096 120.95489 15.593363 C 122.42383 14.979856 123.46291 15.878182 124.7004 16.533358 C 126.96737 17.462531 129.45093 17.82083 131.88807 17.9033 C 128.86233 17.539235 125.59766 17.223397 123.09274 15.311727 C 124.87459 15.088953 126.65874 14.885161 128.44126 14.667839 C 129.77419 15.179286 131.16035 15.628705 132.60121 15.652275 C 134.52211 15.911577 136.27797 14.895178 138.01742 14.246676 C 137.20556 14.438098 135.68188 15.137854 134.54528 15.368054 C 132.65268 15.698176 130.67443 15.314096 128.90273 14.609961 C 131.84511 14.125531 134.84615 13.833977 137.67687 12.844694 C 140.2276 12.006659 142.89335 11.678836 145.53324 11.268563 C 145.93713 11.183123 147.77503 10.823664 147.26078 10.659814 C 144.12373 11.070734 140.95742 11.440919 137.90579 12.303642 C 135.12647 13.316273 132.16885 13.58212 129.26446 14.02085 C 130.06084 13.455404 130.90034 12.94137 131.57802 12.227161 C 132.59413 10.884575 134.4301 10.815734 135.96224 10.676868 C 134.60131 10.64885 133.16073 10.872615 131.96197 11.552783 C 131.00325 12.564201 129.81183 13.297566 128.68569 14.103015 C 127.14947 14.312865 125.61396 14.530612 124.07201 14.69471 C 124.05179 14.297846 125.96642 13.210002 125.93702 12.135177 C 126.22872 10.529959 127.59094 9.348278 129.12442 8.9493245 C 129.51232 8.7772624 129.6287 8.7054508 129.59106 8.6955933 z M 72.250887 17.733801 C 74.387703 18.323956 76.793643 18.82543 78.263957 20.641117 C 79.030368 21.243059 78.927524 22.455962 77.751843 22.276676 C 76.66549 22.191597 75.57681 22.849134 74.519482 22.503019 C 73.870685 21.657767 73.106804 20.82386 72.097925 20.364132 C 70.77732 19.687547 69.25252 19.54726 67.791728 19.59777 C 67.40399 19.78378 68.985173 19.71289 69.380778 19.833931 C 71.186781 20.034497 73.137851 20.85881 73.995483 22.553145 C 73.871075 23.174653 72.429581 22.980391 71.783732 23.316406 C 70.901808 23.415696 69.9624 24.137917 69.159086 23.507609 C 67.911286 23.017026 66.429077 22.458973 65.150545 23.162927 C 64.236467 23.756657 63.237278 24.115901 62.16158 24.25175 C 63.464691 24.395475 64.624549 23.735899 65.720536 23.148975 C 66.792722 22.884468 67.925671 23.225976 68.91259 23.647652 C 69.866492 24.300702 67.928905 24.248326 67.560734 24.555607 C 63.861091 25.749959 60.184507 27.015348 56.472005 28.169857 C 60.804521 27.147547 65.011582 25.59319 69.312565 24.509098 C 69.377035 25.517259 68.178231 26.284768 67.367464 26.760124 C 66.266678 27.43978 64.915321 27.462403 63.818327 28.162105 C 63.490371 28.272418 62.656956 28.919978 63.46486 28.480432 C 64.670692 27.760652 66.089323 27.611667 67.335942 27.014372 C 68.34164 26.522788 69.215563 25.738006 69.661381 24.697717 C 70.349296 23.797302 71.727834 24.025472 72.711841 23.618713 C 73.271988 23.481512 74.004373 23.21729 73.419291 23.97373 C 72.685645 25.627348 71.874868 27.431883 70.192098 28.318685 C 69.385171 28.779734 68.498492 29.079926 67.690959 29.539799 C 69.622052 28.930322 71.566277 27.938702 72.633809 26.137423 C 73.210383 25.237681 73.633724 24.252501 74.15568 23.322091 C 75.580799 23.061388 77.023006 22.913026 78.462911 22.761918 C 77.283794 24.762523 76.11984 26.8615 74.220793 28.278894 C 73.969425 28.492027 73.161198 29.134631 73.903499 28.648381 C 74.918823 27.913939 76.168371 27.346872 76.812366 26.22889 C 77.593771 25.033599 78.334901 23.807586 79.225138 22.688021 C 80.373856 22.454853 81.929696 22.676616 82.856958 22.226034 C 83.750927 23.747494 86.406114 26.760972 88.606995 29.046806 C 91.338486 31.883732 94.07564 34.333505 96.932068 36.795687 C 99.788496 39.257869 103.23367 42.13855 104.48044 45.63184 C 105.72722 49.12513 105.12638 53.570145 104.44065 57.75203 C 103.75493 61.933916 102.97206 65.921754 102.1147 69.961104 C 101.25733 74.000455 100.29805 78.218018 100.6445 82.604777 C 100.79994 84.572886 101.22725 86.597796 101.73229 88.466435 C 101.56199 88.217328 101.3772 87.985301 101.1716 87.780172 C 97.503615 81.915802 91.448997 78.214133 84.644446 77.128625 C 72.951968 73.798051 60.553746 77.474022 50.950895 84.461511 C 42.46946 89.193327 39.177295 98.84138 37.448877 107.82236 C 36.625752 117.46269 38.074391 127.4777 42.436686 136.18704 C 45.489838 145.28182 52.523447 151.85872 59.108537 158.45389 C 65.542483 166.27335 74.31065 171.45445 82.455949 177.28582 C 86.173717 179.62295 89.739655 182.16954 93.15297 184.90293 C 82.218869 189.24656 70.675163 194.7215 63.618339 204.50328 C 59.03376 210.05121 63.685547 216.62882 66.437805 221.77768 C 71.457513 228.09982 77.266685 233.74835 83.358219 239.04949 C 79.602056 239.63738 74.953225 242.70657 71.782699 242.7118 C 58.5874 244.12872 45.672955 247.20129 32.542716 249.04785 C 27.636252 249.59151 22.82666 250.92484 18.659843 253.64137 C 16.155952 255.12448 10.993631 258.07643 10.771436 259.98103 C 18.631279 255.65109 27.187867 252.62929 35.931657 250.65809 C 34.671244 251.44009 30.822761 254.46982 30.229163 257.36104 C 27.589488 260.59491 31.475684 260.89885 34.030481 260.61562 C 37.160047 260.82497 35.480487 260.50083 33.903874 259.33663 C 34.529483 255.34753 38.645437 253.24325 42.174687 252.20734 C 45.323597 250.84014 43.707224 252.23207 42.192773 253.66462 C 40.083813 254.1925 39.966428 261.45139 41.577824 259.45858 C 43.24833 255.62631 47.319247 253.64415 48.974788 249.85348 C 58.495808 245.88822 69.01635 246.51171 79.077861 245.38916 C 76.712991 246.90169 71.436576 247.07147 68.755493 249.87364 C 65.350816 251.91979 61.567355 248.39066 58.041935 250.83223 C 53.777452 251.68909 52.198977 256.27421 48.827511 258.47363 C 42.817565 260.79689 36.331583 261.51697 30.0762 262.94467 C 28.689908 263.32024 21.778677 264.52874 24.974186 265.40292 C 31.275315 265.35602 37.586218 264.22338 43.645398 262.51421 C 47.631997 260.95795 52.746756 260.41043 55.070024 256.36161 C 56.137016 253.66224 66.045402 251.89478 62.011202 255.83451 C 57.960337 259.0346 52.793426 260.49612 48.002755 262.27081 C 43.058992 262.82309 38.789729 264.77799 34.495569 267.2426 C 30.046436 268.5394 34.742718 268.57876 36.511983 267.63173 C 39.84419 265.75916 43.466361 264.02687 47.369718 263.98647 C 43.15225 265.63243 42.444846 270.78244 44.762126 274.41374 C 45.255261 270.90619 44.861476 265.2211 50.133374 265.205 C 53.916704 266.57675 52.794876 271.54893 49.650716 273.52646 C 50.122707 274.72529 56.053146 270.20267 53.36005 267.63328 C 50.181314 264.43759 53.305688 262.9831 56.422396 262.30647 C 60.275038 260.61402 65.076967 259.80844 67.688375 256.24172 C 70.738093 252.9335 74.970008 250.92734 78.925932 248.92176 C 80.184467 248.45284 87.904036 245.98035 83.972652 248.21224 C 80.214868 249.66282 77.970849 252.77051 75.563863 255.81281 C 70.801353 260.17491 66.824738 265.3777 61.821033 269.45435 C 58.142713 272.47843 52.409115 273.63742 48.842497 275.4483 C 53.833754 275.34441 59.037777 273.95716 62.889185 270.67237 C 62.329382 273.26158 59.254329 275.47338 57.956152 277.29935 C 55.409277 282.35129 62.012646 276.91222 62.937244 275.06745 C 66.113231 269.66774 62.878414 279.16542 64.632747 280.67796 C 67.375094 283.34972 66.172493 280.41146 65.940161 278.3427 C 65.973171 272.36543 70.778641 279.87616 71.624569 281.92129 C 73.018909 285.71996 72.765711 282.30637 72.026095 280.46919 C 71.909328 275.88021 63.975639 273.94893 68.597363 269.40785 C 71.659915 266.51339 74.812091 263.42296 78.223649 260.82491 C 82.631247 256.82747 78.649199 263.23738 78.977608 265.55795 C 78.061954 268.86975 71.044149 271.74105 74.836776 275.4111 C 78.980979 277.2587 74.874686 282.71545 76.914168 285.86782 C 79.380175 284.25214 77.035026 279.16443 79.166227 276.37641 C 75.892358 274.81621 75.078811 272.03383 79.14814 270.71371 C 78.752488 272.2906 80.682724 277.61593 82.459049 276.4007 C 81.000233 279.4975 79.081533 282.50537 82.614079 284.86427 C 85.85728 287.31553 83.851631 283.54742 82.952559 282.01224 C 83.022861 277.99627 86.948254 273.5685 85.001013 269.51843 C 81.022748 267.82924 84.115841 264.88441 84.655815 262.26306 C 87.724342 263.07135 89.574786 268.46417 87.609123 271.86403 C 87.722328 275.70836 84.922871 278.97807 84.602071 282.52436 C 88.242465 279.15436 88.696038 273.85781 89.801754 269.27762 C 92.202014 265.42264 87.268209 262.32144 86.937329 258.48913 C 88.798467 254.85997 88.876307 261.16089 91.707581 261.25899 C 95.133422 262.41458 94.851753 265.38141 93.417554 267.90354 C 95.890098 272.91048 89.461954 275.48275 88.593559 279.95862 C 91.853761 277.04426 95.845274 274.04599 96.029797 269.26367 C 97.204763 265.84333 96.542575 268.84691 96.491785 270.53336 C 98.596995 274.04202 98.733439 278.31865 94.289852 279.97361 C 90.68786 280.88107 88.796105 283.12587 86.253133 285.39033 C 87.39896 285.90732 90.667661 282.31404 93.156588 281.94868 C 96.19681 279.64802 94.522869 283.00967 94.244893 284.75678 C 94.929968 286.62622 96.457311 280.59581 97.642102 279.61962 C 101.17201 277.08379 100.92876 272.90087 101.33903 269.03164 C 103.57586 263.69668 97.841847 262.04448 95.014355 259.02967 C 93.994887 258.1276 90.509681 251.12354 92.872367 254.49919 C 95.699539 258.59653 102.39978 257.38699 103.65879 262.97826 C 106.55682 267.53591 101.77796 271.94392 102.73636 276.72161 C 102.70999 279.92191 95.800724 282.33995 100.44762 285.2353 C 104.93717 287.49698 98.351799 283.18482 101.59018 281.41021 C 105.96503 279.46614 102.98603 276.18439 104.02311 272.6893 C 105.86673 268.79455 104.58916 274.66036 104.74968 275.98832 C 108.9974 279.04639 101.22036 280.8348 103.74199 283.54032 C 108.20774 283.69552 102.15193 286.87398 105.30727 285.83578 C 110.4999 284.60236 101.76901 282.96126 105.66849 280.99008 C 110.10387 279.58306 105.23716 276.57565 106.27827 274.41374 C 106.03261 277.67693 113.30492 277.606 110.90693 279.71368 C 107.61617 280.70755 107.1008 284.08682 109.69046 285.42754 C 110.25859 286.84621 108.77947 282.33394 110.03773 281.28051 C 112.02295 280.08587 115.98156 277.12659 111.05369 277.25336 C 106.88146 275.7238 104.60553 269.4416 107.01879 265.80806 C 106.39547 267.80022 106.66654 270.20972 107.81874 272.20612 C 108.61704 277.50835 115.63528 272.94482 118.10442 277.03735 C 117.22282 280.29044 110.51884 280.83008 111.27331 285.47611 C 111.90131 285.08626 114.6194 280.38207 117.30395 279.84752 C 116.79216 281.89135 114.17393 283.36383 113.02308 285.50454 C 113.9328 286.74342 117.2633 278.97529 118.79533 283.21579 C 115.52072 282.28818 118.10383 287.06735 117.75767 284.81104 C 118.44283 283.35437 121.23871 283.44904 118.43877 281.81587 C 120.90294 282.32204 121.81475 284.56919 119.27644 285.90968 C 122.06836 285.14917 122.60811 282.41148 119.5896 281.5363 C 119.64235 279.18718 123.36875 275.35565 118.56021 274.66489 C 115.5698 272.98474 118.01962 272.97129 119.62784 274.3109 C 124.8196 276.12663 121.27452 281.49527 122.43697 285.22497 C 123.72402 284.52836 123.20247 280.41697 123.84929 278.47034 C 124.48372 273.50136 118.84083 272.29796 115.26738 271.07028 C 110.98933 268.26286 110.89596 262.03064 106.66687 258.95422 C 105.92139 257.89765 105.14131 256.872 104.32748 255.88206 C 106.5591 257.34589 109.30835 258.07114 111.68259 259.34283 C 113.84871 263.17782 115.01352 270.10511 120.52391 270.8398 C 127.31525 273.00761 123.93298 280.32976 125.03991 285.42547 C 126.10551 285.73757 125.87096 277.00015 125.89516 274.0396 C 125.395 268.732 116.13042 270.00223 117.88738 264.22832 C 122.31366 267.79392 129.31946 270.22929 127.21756 277.38204 C 126.86696 280.52189 127.83902 289.55346 128.53892 281.50995 C 128.89419 275.96065 130.40183 268.78018 124.94379 265.14196 C 123.52646 264.20664 122.10811 263.26554 120.70271 262.30595 L 124.24358 259.8875 C 126.47723 261.42976 128.60254 263.1388 130.13521 265.35073 C 131.54103 270.65398 134.01387 276.67962 132.83789 280.45627 C 130.04665 283.47696 137.06763 286.89066 135.91573 285.50195 C 133.35469 282.86176 135.4494 274.20983 135.2274 273.71301 C 138.35037 277.4682 138.19101 285.71623 144.42116 285.34641 C 139.08933 282.32905 140.4039 274.57103 135.80928 271.15451 C 140.64198 271.05115 143.0442 278.03581 144.09611 279.77104 C 144.39306 273.52793 140.72429 268.94451 134.47086 268.55622 C 132.92302 264.45178 129.75669 261.0648 126.23416 258.52841 L 126.23364 258.52841 C 125.21803 257.51999 128.55691 258.13591 129.00505 258.12791 C 134.93907 258.58044 139.53578 262.7419 142.58251 267.52166 C 147.30571 271.64647 145.89898 279.91602 147.27111 284.58418 C 149.92996 280.19421 149.5254 273.51483 146.75642 269.01614 C 144.84345 264.13958 139.47834 261.77522 136.98699 257.58169 C 142.20811 259.3537 147.50757 261.37344 152.36538 263.97665 C 153.29777 268.03654 153.06964 272.68056 153.95908 276.88387 C 155.22612 279.53117 149.02134 285.62768 151.97315 284.00282 C 158.36567 284.51127 152.54863 272.2566 157.62759 277.02753 C 157.29448 279.3094 156.42007 283.12723 160.74109 282.78016 C 163.54275 285.74472 164.16549 283.94502 161.46818 281.87737 C 157.10375 280.41373 159.64686 278.71154 162.83451 278.31118 C 161.01951 274.86389 153.49832 271.87499 155.8277 265.98015 C 154.03095 261.33806 157.93741 264.83472 158.62804 267.09171 C 158.42889 273.85423 168.72881 276.73857 165.59144 283.77079 C 168.39547 283.10187 168.66287 273.41948 163.45152 273.19418 C 169.25818 270.60101 168.11281 277.50827 171.92697 279.61291 C 172.69491 282.90863 171.89061 283.18857 173.56977 279.94209 C 171.03417 277.0279 172.68025 272.19057 170.88001 268.77067 C 165.05059 268.47692 168.21198 260.8397 171.39161 266.09797 C 176.15747 271.60194 170.86553 260.0914 167.17119 263.6237 C 165.91657 268.85229 160.76213 264.05982 158.40015 261.44554 C 153.65629 259.12426 158.05965 258.31555 160.94315 259.09685 C 166.40641 260.92149 175.19733 261.96367 176.09003 268.94379 C 174.6803 272.91653 174.01461 276.15108 176.91995 279.50749 C 176.5855 287.33496 180.21246 276.8604 176.1908 275.72477 C 175.72722 268.70619 181.19635 274.82185 180.32543 278.36544 C 179.05219 282.23557 180.02078 281.5866 181.80079 278.63519 C 181.25116 275.68032 179.25704 272.02443 182.94904 276.45858 C 185.31491 279.96742 185.35165 278.04938 183.35367 275.42763 C 179.19476 273.02543 180.39929 268.57351 177.41346 265.79153 C 173.20111 262.66697 177.48607 266.0466 179.6743 266.0158 C 182.28039 267.17954 185.86595 274.66677 189.88918 277.04769 C 185.91091 273.51713 183.98363 265.51436 177.88578 263.9565 C 172.75813 261.5035 167.99786 257.45945 161.96686 257.44785 C 153.79497 257.86633 164.69415 254.59536 167.57685 255.86862 C 173.1784 257.58733 178.66263 259.53424 184.08851 261.85378 C 190.042 264.74497 193.59018 270.94745 199.95627 273.10943 C 195.89225 270.37012 191.71263 265.85699 187.87742 262.1349 C 183.07027 258.2272 176.72463 256.85612 171.27533 254.08217 C 165.10088 252.59749 158.47196 252.85731 153.0165 256.17093 C 144.1444 254.87077 135.50204 252.20925 126.96176 249.47831 C 130.45269 250.33252 134.01752 250.28798 137.5854 250.20488 C 135.35387 249.21517 126.8691 247.28288 122.05612 247.36578 C 118.62363 246.19055 115.17476 244.82712 111.97766 243.03271 C 118.85444 235.61934 126.81291 228.47823 134.03265 221.47227 C 141.41829 214.91281 132.43488 207.99352 127.57774 203.60359 C 121.00009 197.06248 114.22802 190.55794 106.70201 185.13185 C 110.45948 183.21129 115.30248 181.38184 118.91264 179.70273 C 127.60247 175.40812 135.39641 169.40873 143.40727 163.97449 C 153.59052 156.03151 166.36793 148.41845 169.41343 134.88686 C 170.11955 127.57782 169.60115 120.20814 168.66257 112.92799 C 167.27218 107.98704 164.99454 103.23376 161.90588 99.086458 C 159.18443 95.555668 155.4929 92.736832 152.02328 89.940763 C 148.13915 86.840746 143.6956 84.794316 139.02821 83.169084 C 132.52552 79.638271 125.44899 80.373053 119.17154 83.546322 C 115.69508 85.142943 112.532 87.558184 109.86926 90.412569 C 110.64679 88.18685 110.8777 85.093041 111.45573 78.917147 C 112.08272 72.218188 113.13677 61.762179 113.87109 55.079325 C 114.6054 48.396472 115.03883 45.355998 116.99803 42.940015 C 118.95723 40.524031 122.49588 38.514808 126.50701 36.171952 C 130.51814 33.829096 135.12493 31.079361 138.41429 28.946554 C 140.45994 27.62016 142.64875 26.040476 143.7659 24.982454 C 145.09848 24.736204 146.31743 24.072992 147.54087 23.510193 C 148.52031 22.691945 149.54658 22.820287 150.59804 23.438879 C 151.50713 23.875365 152.87327 23.995951 152.92917 25.260474 C 152.69068 26.411158 152.53966 27.586791 152.54366 28.765686 C 152.43973 29.909372 152.69605 31.156157 153.74979 31.788757 C 154.61774 32.488044 153.56113 31.462715 153.35343 31.226518 C 152.61954 30.346159 152.79304 29.064372 152.80204 27.991573 C 152.9649 26.938853 152.8937 25.636216 153.51156 24.7835 C 154.8933 25.411638 156.14906 26.288235 157.54491 26.883114 C 157.90541 27.974557 157.53377 29.11853 157.74799 30.221411 C 158.13134 31.313998 159.08096 32.217399 160.14113 32.656921 C 159.49796 32.231078 158.5105 31.487632 158.07407 30.632756 C 157.68195 29.538196 158.09546 28.337631 157.82861 27.207125 C 158.31323 26.887931 159.86593 27.86912 160.80672 27.93938 C 162.22436 27.928305 162.96114 28.95182 163.01744 30.297375 C 163.8215 31.483229 165.22838 32.201451 166.65598 32.232141 C 166.67282 32.176742 164.7074 31.927094 164.19515 31.285946 C 162.99076 30.745665 163.10487 29.411753 162.60299 28.403434 C 164.33247 28.878698 166.1066 29.238393 167.76289 29.942358 C 170.12013 31.060872 172.4778 32.193762 174.69321 33.578829 C 173.88721 32.958125 173.01786 32.420715 172.17657 31.848185 C 169.96634 30.463951 167.58843 29.300173 165.0752 28.582235 C 164.83132 28.461072 166.47128 27.94293 166.89111 27.94093 C 168.33634 27.881182 169.50025 28.816506 170.59631 29.625582 C 170.10589 29.070189 168.93617 28.128122 167.93962 27.928528 C 166.62275 27.362725 165.46052 28.40356 164.16052 28.3099 C 162.46644 27.803936 160.75443 27.352932 159.08435 26.770459 C 159.07946 26.405107 160.51951 26.261922 161.03565 25.889376 C 162.45512 24.933879 164.30922 24.930241 165.90564 25.287862 C 164.80266 24.770688 163.33938 24.906174 162.13326 25.179858 C 161.0324 25.583208 160.03045 26.299642 158.8332 26.444381 C 157.45904 26.487369 156.33511 25.327294 155.10733 24.818123 C 154.10003 24.520858 154.5364 24.06028 155.37811 23.948926 C 156.62136 22.923705 158.36134 22.88453 159.89928 22.910229 C 160.33609 22.87189 162.48901 23.216332 161.54208 22.89731 C 160.02791 22.74419 158.48623 22.611333 156.98783 22.974825 C 155.77388 23.087155 154.94306 24.254241 153.64954 24.078117 C 152.21318 23.408806 150.74371 22.811976 149.26892 22.233268 C 147.86286 22.512769 146.45867 22.803696 145.06608 23.14484 C 144.41833 23.193304 143.84997 23.387918 143.51475 23.777877 C 141.91897 23.840001 138.76678 24.454411 135.37365 25.707992 C 131.24713 27.232522 126.38119 29.798321 122.93823 31.359326 C 119.49527 32.920332 113.89714 34.553466 113.77755 31.471981 C 113.65796 28.390495 113.41821 22.209529 112.33268 21.017839 C 111.24715 19.826148 109.31539 23.614472 108.01511 26.793713 C 106.71483 29.972954 105.70159 33.865807 102.76892 32.781462 C 99.836247 31.697116 94.867379 28.139917 90.629093 25.388114 C 87.154553 23.13219 84.050148 21.372055 82.960828 21.249866 C 82.94109 21.241433 82.916439 21.238312 82.88693 21.240047 C 82.73212 21.232526 82.607342 21.249587 82.559302 21.327897 C 81.343254 21.37182 79.713495 22.548158 78.962622 21.165116 C 78.327786 20.129779 77.419017 19.293528 76.273897 18.861898 C 75.001987 18.28565 73.636286 17.904663 72.250887 17.733801 z M 75.430021 77.56064 C 80.788494 77.332024 86.165748 78.263578 91.115369 80.559424 C 98.697591 83.614717 100.87787 91.404877 104.04946 97.997119 C 109.71333 95.691609 114.80956 86.704304 121.90677 84.144735 C 131.48686 79.478653 141.84476 85.025184 149.61516 90.6663 C 156.84039 95.050375 161.68708 102.08464 165.55217 109.39487 C 167.39002 118.05494 169.15239 127.2502 167.3195 136.03304 C 161.72759 150.43434 146.77672 157.2579 134.80056 165.45295 C 125.33061 172.39152 112.60567 177.2908 101.90076 181.91086 C 99.191464 180.21541 96.394875 178.65001 93.45166 177.31114 C 80.773319 171.30247 70.238349 161.87905 59.638737 152.87387 C 52.248114 144.84756 43.837947 136.55274 41.622266 125.43575 C 38.475409 114.94168 39.758172 103.28007 45.092338 93.749316 C 51.943875 84.182662 63.641381 78.063597 75.430021 77.56064 z M 103.64587 94.251095 C 104.16376 95.593479 104.48096 96.283499 104.80601 96.517106 C 104.2498 96.548792 103.93971 95.546929 103.64587 94.251095 z M 98.534037 189.49954 C 101.12891 191.86779 103.61956 194.355 105.97751 196.98229 C 110.32163 202.11228 116.92562 206.83086 118.30441 213.49446 C 113.49053 221.00671 104.49877 226.91482 96.747066 230.97402 C 93.668874 228.57444 90.554934 226.21752 87.551762 223.72536 C 83.419803 219.33457 75.178966 214.31507 77.433516 207.44522 C 82.339234 201.24913 89.081407 196.80214 95.247933 191.95314 C 97.06874 190.9733 98.07617 190.17841 98.534037 189.49954 z M 81.143368 268.19138 C 81.599252 268.21193 83.609317 270.69719 83.586629 271.91932 C 83.743131 273.17653 83.322172 274.46234 82.761873 275.74079 C 80.45958 274.75408 80.618034 272.04871 81.821879 270.0414 C 81.050106 268.6823 80.936147 268.18204 81.143368 268.19138 z " /><path
       style="fill:none;fill-opacity:1;stroke:#000000;stroke-width:0.264583;stroke-linejoin:round;stroke-miterlimit:0;stroke-opacity:1"
       d="m 57.75035,-73.225074 c -0.129433,1.498599 -1.014528,3.235843 -1.969688,4.833543 -0.95516,1.5977 -1.98034,3.055792 -3.270115,4.276598 -1.289775,1.220806 -2.844059,2.204255 -4.900036,2.972855 -2.055977,0.7686 -4.613513,1.322309 -6.871165,1.655083 -2.257651,0.332773 -4.215287,0.444596 -6.472347,0.09962 -2.25706,-0.344982 -4.813397,-1.146736 -6.804702,-1.655904 -1.991306,-0.509167 -3.41747,-0.725723 -4.927683,-0.679002 -1.510212,0.04672 -3.104381,0.35671 -2.880801,-0.0069 0.22358,-0.36364 2.264861,-1.400875 4.022385,-2.762072 1.757523,-1.361197 3.231192,-3.046268 4.603401,-4.762783 1.37221,-1.716515 2.642881,-3.464369 3.99211,-5.019917 1.349228,-1.555547 2.77693,-2.918696 4.540874,-4.070988 1.763944,-1.152291 3.864016,-2.093659 5.722787,-2.591593 1.858771,-0.497933 3.476134,-0.552412 5.16682,-0.385699 1.690686,0.166714 3.454595,0.554604 4.954345,1.271262 1.49975,0.716657 2.735258,1.762032 3.666144,2.914718 0.930886,1.152686 1.557104,2.412614 1.427671,3.911214 z"
       id="path3"
       transform="matrix(0.67681569,0,0,0.53491338,43.092349,61.166845)"
       inkscape:original-d="m 58.506013,-73.463721 c -0.885095,1.737247 -1.770192,3.47449 -2.655287,5.211736 -1.025224,1.458154 -2.050405,2.916246 -3.075607,4.37437 -1.554347,0.983488 -3.108632,1.966936 -4.662948,2.950406 -2.557637,0.55373 -5.115173,1.10744 -7.67276,1.66116 -1.957716,0.111828 -3.915352,0.223652 -5.87303,0.335475 -2.556442,-0.801788 -5.112779,-1.603541 -7.669168,-2.405313 -1.426222,-0.216565 -2.852386,-0.433121 -4.278579,-0.64968 -1.594232,0.310002 -3.188401,0.619993 -4.782602,0.929987 2.041362,-1.037275 4.082642,-2.074511 6.123963,-3.111767 1.473727,-1.685137 2.947394,-3.37021 4.421092,-5.055314 1.270722,-1.747925 2.541394,-3.495779 3.81209,-5.243669 1.42776,-1.363205 2.855462,-2.726354 4.283194,-4.089532 2.100156,-0.941406 4.200228,-1.882773 6.300343,-2.82416 1.617427,-0.05448 3.23479,-0.108961 4.852185,-0.163438 1.763977,0.387905 3.527886,0.775798 5.291831,1.163695 1.235554,1.045417 2.471063,2.090791 3.706593,3.136186 0.626242,1.259977 1.252461,2.519905 1.87869,3.779858 z"
       inkscape:path-effect="#path-effect3" /><path
       style="fill:none;fill-opacity:1;stroke:#000000;stroke-width:0.159198;stroke-linejoin:round;stroke-miterlimit:0;stroke-opacity:1"
       d="m 112.40765,20.190046 3.43367,-3.71222 c 0,0 0.27894,-3.288159 1.6476,-4.201886 1.36866,-0.913728 3.26987,-2.156264 5.94016,-2.8492927 2.67028,-0.69303 5,-0.962078 6.09081,-0.816861 1.0908,0.145217 2.7908,1.042736 4.22488,1.4152787 1.4341,0.372544 4.66812,1.329975 7.02822,1.258374 2.36008,-0.0716 10.59395,-1.4149447 4.56367,0.06684 -6.03028,1.481786 -3.5087,0.767836 -6.81469,2.610018 -3.306,1.842183 -4.90309,3.882223 -9.25065,4.696731 -4.34755,0.814507 -6.93345,1.52446 -9.28008,1.357631 -2.34662,-0.166829 -4.40662,-0.899017 -4.33156,-2.403342 0.0751,-1.504325 -2.74459,3.281276 -2.74459,3.281276 -0.0974,0.127327 -0.20709,0.47522 -0.28768,0.300801 -0.21514,-0.189111 -0.91094,-0.408716 -0.21976,-1.003348 z"
       id="path11"
       sodipodi:nodetypes="ccssssssssscccc" /><path
       style="fill:none;fill-opacity:1;stroke:#000000;stroke-width:0.159198;stroke-linejoin:round;stroke-miterlimit:0;stroke-opacity:1"
       d="m 149.27635,22.247908 c 0,0 2.16278,-1.934726 4.6818,-1.934034 2.51903,6.94e-4 3.21584,0.0912 6.0292,1.612656 2.81337,1.521456 6.66066,3.559051 8.20374,5.00241 1.54307,1.44336 4.37893,5.086788 5.76181,5.945063 1.38289,0.858276 0.9353,1.064265 -1.09357,0.05311 -2.02889,-1.011145 -1.97254,-0.855334 -3.97778,-0.927217 -2.00525,-0.07189 -2.90882,0.789657 -4.75346,0.816469 -1.84464,0.02681 -3.80222,-0.0707 -6.8453,-0.427905 -3.04307,-0.357205 -5.20209,-0.574415 -6.22712,-1.144065 -1.02503,-0.569651 -1.84474,-1.265463 -2.48231,-2.230024 -0.63756,-0.964559 -0.56639,-2.018787 -0.44705,-3.313 0.11934,-1.29421 1.11991,-2.964858 0.85342,-2.863977 z"
       id="path19"
       sodipodi:nodetypes="cssssssssssscc" /><path
       style="fill:#000000;fill-opacity:1;stroke:#000000;stroke-width:0.159198;stroke-linejoin:round;stroke-miterlimit:0;stroke-opacity:1"
       d="m 124.55303,93.757755 c -5.26375,1.687369 -8.9529,6.160786 -12.90637,9.792995 -3.94217,4.00945 -7.97964,7.98707 -12.869048,10.84357 -10.22729,6.83367 -20.638146,13.40191 -30.679029,20.50896 -1.23027,2.06064 4.26514,0.2862 5.611525,0.33584 12.066424,-1.38489 24.223657,-1.77319 36.318222,-2.8726 5.21079,-0.24874 10.48318,-0.89921 15.66311,-0.82855 -2.61844,2.21857 -5.84169,4.06335 -8.64998,6.21589 -7.98461,5.88268 -15.61388,12.2286 -22.798555,19.06544 -3.170687,3.13624 -7.091226,5.67534 -9.531694,9.45666 -2.010082,3.69705 3.541465,-0.45951 5.093954,-0.92609 3.691529,-1.73336 7.111156,-3.97789 9.95743,-6.91624 8.194175,-7.40177 16.620465,-14.54119 25.386035,-21.25774 3.98606,-3.32601 8.0621,-6.58359 12.78966,-8.80878 2.03326,-2.06443 -3.83312,-0.39017 -4.99075,-0.57399 -12.21903,0.86152 -24.4395,1.7033 -36.646189,2.72074 -4.385309,0.21572 -8.779739,0.71435 -13.154539,0.83684 3.514769,-2.82045 8.023263,-4.67337 11.621847,-7.58543 4.740029,-3.34454 9.253951,-6.97398 13.507331,-10.91506 3.59999,-3.44386 7.84638,-6.01098 12.02649,-8.66147 3.31212,-2.47673 4.97839,-6.534973 6.47499,-10.260137 0.97043,-2.198105 -1.54333,-0.677801 -2.22444,-0.170848 z"
       id="path27" /></g></svg>
